<?xml version="1.0" encoding="UTF-8" standalone="no"?>
<!DOCTYPE svg PUBLIC "-//W3C//DTD SVG 1.1//EN"
 "http://www.w3.org/Graphics/SVG/1.1/DTD/svg11.dtd">
<!-- Generated by graphviz version 2.44.1 (20200629.0846)
 -->
<!-- Title: dependencies Pages: 1 -->
<svg width="828pt" height="284pt"
 viewBox="0.00 0.00 828.00 284.00" xmlns="http://www.w3.org/2000/svg" xmlns:xlink="http://www.w3.org/1999/xlink">
<g id="graph0" class="graph" transform="scale(1 1) rotate(0) translate(4 280)">
<title>dependencies</title>
<polygon fill="white" stroke="transparent" points="-4,4 -4,-280 824,-280 824,4 -4,4"/>
<text text-anchor="start" x="389.01" y="-42.4" font-family="sans-serif" font-weight="bold" font-size="14.00">Legend</text>
<polygon fill="#ffffb3" stroke="transparent" points="176,-10 176,-30 196,-30 196,-10 176,-10"/>
<text text-anchor="start" x="199.63" y="-15.4" font-family="sans-serif" font-size="14.00"> &#160;Declarations</text>
<polygon fill="#8dd3c7" stroke="transparent" points="289,-10 289,-30 309,-30 309,-10 289,-10"/>
<text text-anchor="start" x="312.73" y="-15.4" font-family="sans-serif" font-size="14.00"> &#160;Module</text>
<polygon fill="#80b1d3" stroke="transparent" points="375,-10 375,-30 395,-30 395,-10 375,-10"/>
<text text-anchor="start" x="398.78" y="-15.4" font-family="sans-serif" font-size="14.00"> &#160;Bootstrap</text>
<polygon fill="#fdb462" stroke="transparent" points="472,-10 472,-30 492,-30 492,-10 472,-10"/>
<text text-anchor="start" x="495.67" y="-15.4" font-family="sans-serif" font-size="14.00"> &#160;Providers</text>
<polygon fill="#fb8072" stroke="transparent" points="568,-10 568,-30 588,-30 588,-10 568,-10"/>
<text text-anchor="start" x="591.73" y="-15.4" font-family="sans-serif" font-size="14.00"> &#160;Exports</text>
<g id="clust1" class="cluster">
<title>cluster_AppModule</title>
<polygon fill="none" stroke="black" stroke-dasharray="1,5" points="8,-70 8,-268 298,-268 298,-70 8,-70"/>
</g>
<g id="clust2" class="cluster">
<title>cluster_AppModule_declarations</title>
<polygon fill="none" stroke="black" points="168,-78 168,-130 290,-130 290,-78 168,-78"/>
</g>
<g id="clust4" class="cluster">
<title>cluster_AppModule_imports</title>
<polygon fill="none" stroke="black" points="16,-78 16,-130 160,-130 160,-78 16,-78"/>
</g>
<g id="clust6" class="cluster">
<title>cluster_AppModule_bootstrap</title>
<polygon fill="none" stroke="black" points="96,-208 96,-260 220,-260 220,-208 96,-208"/>
</g>
<g id="clust14" class="cluster">
<title>cluster_LoggingModule</title>
<polygon fill="none" stroke="black" stroke-dasharray="1,5" points="306,-70 306,-268 470,-268 470,-70 306,-70"/>
</g>
<g id="clust15" class="cluster">
<title>cluster_LoggingModule_declarations</title>
<polygon fill="none" stroke="black" points="316,-78 316,-130 460,-130 460,-78 316,-78"/>
</g>
<g id="clust18" class="cluster">
<title>cluster_LoggingModule_exports</title>
<polygon fill="none" stroke="black" points="314,-208 314,-260 462,-260 462,-208 314,-208"/>
</g>
<g id="clust21" class="cluster">
<title>cluster_NetworkModule</title>
<polygon fill="none" stroke="black" stroke-dasharray="1,5" points="478,-70 478,-268 644,-268 644,-70 478,-70"/>
</g>
<g id="clust22" class="cluster">
<title>cluster_NetworkModule_declarations</title>
<polygon fill="none" stroke="black" points="488,-78 488,-130 634,-130 634,-78 488,-78"/>
</g>
<g id="clust25" class="cluster">
<title>cluster_NetworkModule_exports</title>
<polygon fill="none" stroke="black" points="486,-208 486,-260 636,-260 636,-208 486,-208"/>
</g>
<g id="clust28" class="cluster">
<title>cluster_StorageModule</title>
<polygon fill="none" stroke="black" stroke-dasharray="1,5" points="652,-70 652,-268 812,-268 812,-70 652,-70"/>
</g>
<g id="clust29" class="cluster">
<title>cluster_StorageModule_declarations</title>
<polygon fill="none" stroke="black" points="662,-78 662,-130 802,-130 802,-78 662,-78"/>
</g>
<g id="clust32" class="cluster">
<title>cluster_StorageModule_exports</title>
<polygon fill="none" stroke="black" points="660,-208 660,-260 804,-260 804,-208 660,-208"/>
</g>
<!-- AppComponent -->
<g id="node1" class="node">
<title>AppComponent</title>
<polygon fill="#ffffb3" stroke="black" points="281.94,-122 176.06,-122 176.06,-86 281.94,-86 281.94,-122"/>
<text text-anchor="middle" x="229" y="-99.8" font-family="Times,serif" font-size="14.00">AppComponent</text>
</g>
<!-- AppModule -->
<g id="node2" class="node">
<title>AppModule</title>
<polygon fill="#8dd3c7" stroke="black" points="199.66,-187 196.66,-191 175.66,-191 172.66,-187 116.34,-187 116.34,-151 199.66,-151 199.66,-187"/>
<text text-anchor="middle" x="158" y="-164.8" font-family="Times,serif" font-size="14.00">AppModule</text>
</g>
<!-- AppComponent&#45;&gt;AppModule -->
<g id="edge1" class="edge">
<title>AppComponent&#45;&gt;AppModule</title>
<path fill="none" stroke="black" d="M188.05,-122.11C188.05,-122.11 188.05,-140.99 188.05,-140.99"/>
<polygon fill="black" stroke="black" points="184.55,-140.99 188.05,-150.99 191.55,-140.99 184.55,-140.99"/>
</g>
<!-- AppComponent  -->
<g id="node4" class="node">
<title>AppComponent </title>
<polygon fill="#80b1d3" stroke="black" points="212.44,-252 103.56,-252 103.56,-216 212.44,-216 212.44,-252"/>
<text text-anchor="middle" x="158" y="-229.8" font-family="Times,serif" font-size="14.00">AppComponent </text>
</g>
<!-- AppModule&#45;&gt;AppComponent  -->
<g id="edge3" class="edge">
<title>AppModule&#45;&gt;AppComponent </title>
<path fill="none" stroke="black" stroke-dasharray="1,5" d="M158,-187.11C158,-187.11 158,-205.99 158,-205.99"/>
<polygon fill="black" stroke="black" points="154.5,-205.99 158,-215.99 161.5,-205.99 154.5,-205.99"/>
</g>
<!-- AppRoutingModule -->
<g id="node3" class="node">
<title>AppRoutingModule</title>
<polygon fill="#8dd3c7" stroke="black" points="152.27,-122 149.27,-126 128.27,-126 125.27,-122 23.73,-122 23.73,-86 152.27,-86 152.27,-122"/>
<text text-anchor="middle" x="88" y="-99.8" font-family="Times,serif" font-size="14.00">AppRoutingModule</text>
</g>
<!-- AppRoutingModule&#45;&gt;AppModule -->
<g id="edge2" class="edge">
<title>AppRoutingModule&#45;&gt;AppModule</title>
<path fill="none" stroke="black" d="M134.28,-122.11C134.28,-122.11 134.28,-140.99 134.28,-140.99"/>
<polygon fill="black" stroke="black" points="130.78,-140.99 134.28,-150.99 137.78,-140.99 130.78,-140.99"/>
</g>
<!-- LoggingComponent -->
<g id="node5" class="node">
<title>LoggingComponent</title>
<polygon fill="#ffffb3" stroke="black" points="452.28,-122 323.72,-122 323.72,-86 452.28,-86 452.28,-122"/>
<text text-anchor="middle" x="388" y="-99.8" font-family="Times,serif" font-size="14.00">LoggingComponent</text>
</g>
<!-- LoggingModule -->
<g id="node6" class="node">
<title>LoggingModule</title>
<polygon fill="#8dd3c7" stroke="black" points="441.49,-187 438.49,-191 417.49,-191 414.49,-187 334.51,-187 334.51,-151 441.49,-151 441.49,-187"/>
<text text-anchor="middle" x="388" y="-164.8" font-family="Times,serif" font-size="14.00">LoggingModule</text>
</g>
<!-- LoggingComponent&#45;&gt;LoggingModule -->
<g id="edge4" class="edge">
<title>LoggingComponent&#45;&gt;LoggingModule</title>
<path fill="none" stroke="black" d="M388,-122.11C388,-122.11 388,-140.99 388,-140.99"/>
<polygon fill="black" stroke="black" points="384.5,-140.99 388,-150.99 391.5,-140.99 384.5,-140.99"/>
</g>
<!-- LoggingComponent  -->
<g id="node7" class="node">
<title>LoggingComponent </title>
<polygon fill="#fb8072" stroke="black" points="454.28,-252 321.72,-252 321.72,-216 454.28,-216 454.28,-252"/>
<text text-anchor="middle" x="388" y="-229.8" font-family="Times,serif" font-size="14.00">LoggingComponent </text>
</g>
<!-- LoggingModule&#45;&gt;LoggingComponent  -->
<g id="edge5" class="edge">
<title>LoggingModule&#45;&gt;LoggingComponent </title>
<path fill="none" stroke="black" stroke-dasharray="5,2" d="M388,-187.11C388,-187.11 388,-205.99 388,-205.99"/>
<polygon fill="black" stroke="black" points="384.5,-205.99 388,-215.99 391.5,-205.99 384.5,-205.99"/>
</g>
<!-- NetworkComponent -->
<g id="node8" class="node">
<title>NetworkComponent</title>
<polygon fill="#ffffb3" stroke="black" points="626.31,-122 495.69,-122 495.69,-86 626.31,-86 626.31,-122"/>
<text text-anchor="middle" x="561" y="-99.8" font-family="Times,serif" font-size="14.00">NetworkComponent</text>
</g>
<!-- NetworkModule -->
<g id="node9" class="node">
<title>NetworkModule</title>
<polygon fill="#8dd3c7" stroke="black" points="615.03,-187 612.03,-191 591.03,-191 588.03,-187 506.97,-187 506.97,-151 615.03,-151 615.03,-187"/>
<text text-anchor="middle" x="561" y="-164.8" font-family="Times,serif" font-size="14.00">NetworkModule</text>
</g>
<!-- NetworkComponent&#45;&gt;NetworkModule -->
<g id="edge6" class="edge">
<title>NetworkComponent&#45;&gt;NetworkModule</title>
<path fill="none" stroke="black" d="M561,-122.11C561,-122.11 561,-140.99 561,-140.99"/>
<polygon fill="black" stroke="black" points="557.5,-140.99 561,-150.99 564.5,-140.99 557.5,-140.99"/>
</g>
<!-- NetworkComponent  -->
<g id="node10" class="node">
<title>NetworkComponent </title>
<polygon fill="#fb8072" stroke="black" points="627.81,-252 494.19,-252 494.19,-216 627.81,-216 627.81,-252"/>
<text text-anchor="middle" x="561" y="-229.8" font-family="Times,serif" font-size="14.00">NetworkComponent </text>
</g>
<!-- NetworkModule&#45;&gt;NetworkComponent  -->
<g id="edge7" class="edge">
<title>NetworkModule&#45;&gt;NetworkComponent </title>
<path fill="none" stroke="black" stroke-dasharray="5,2" d="M561,-187.11C561,-187.11 561,-205.99 561,-205.99"/>
<polygon fill="black" stroke="black" points="557.5,-205.99 561,-215.99 564.5,-205.99 557.5,-205.99"/>
</g>
<!-- StorageComponent -->
<g id="node11" class="node">
<title>StorageComponent</title>
<polygon fill="#ffffb3" stroke="black" points="794.1,-122 669.9,-122 669.9,-86 794.1,-86 794.1,-122"/>
<text text-anchor="middle" x="732" y="-99.8" font-family="Times,serif" font-size="14.00">StorageComponent</text>
</g>
<!-- StorageModule -->
<g id="node12" class="node">
<title>StorageModule</title>
<polygon fill="#8dd3c7" stroke="black" points="783.31,-187 780.31,-191 759.31,-191 756.31,-187 680.69,-187 680.69,-151 783.31,-151 783.31,-187"/>
<text text-anchor="middle" x="732" y="-164.8" font-family="Times,serif" font-size="14.00">StorageModule</text>
</g>
<!-- StorageComponent&#45;&gt;StorageModule -->
<g id="edge8" class="edge">
<title>StorageComponent&#45;&gt;StorageModule</title>
<path fill="none" stroke="black" d="M732,-122.11C732,-122.11 732,-140.99 732,-140.99"/>
<polygon fill="black" stroke="black" points="728.5,-140.99 732,-150.99 735.5,-140.99 728.5,-140.99"/>
</g>
<!-- StorageComponent  -->
<g id="node13" class="node">
<title>StorageComponent </title>
<polygon fill="#fb8072" stroke="black" points="795.6,-252 668.4,-252 668.4,-216 795.6,-216 795.6,-252"/>
<text text-anchor="middle" x="732" y="-229.8" font-family="Times,serif" font-size="14.00">StorageComponent </text>
</g>
<!-- StorageModule&#45;&gt;StorageComponent  -->
<g id="edge9" class="edge">
<title>StorageModule&#45;&gt;StorageComponent </title>
<path fill="none" stroke="black" stroke-dasharray="5,2" d="M732,-187.11C732,-187.11 732,-205.99 732,-205.99"/>
<polygon fill="black" stroke="black" points="728.5,-205.99 732,-215.99 735.5,-205.99 728.5,-205.99"/>
</g>
</g>
</svg>
